<?xml version="1.0" standalone="no"?>
<!DOCTYPE svg PUBLIC "-//W3C//DTD SVG 20010904//EN"
 "http://www.w3.org/TR/2001/REC-SVG-20010904/DTD/svg10.dtd">
<svg version="1.0" xmlns="http://www.w3.org/2000/svg"
 width="512.000000pt" height="512.000000pt" viewBox="0 0 512.000000 512.000000"
 preserveAspectRatio="xMidYMid meet">
<metadata>
Created by potrace 1.14, written by Peter Selinger 2001-2017
</metadata>
<g transform="translate(0.000000,512.000000) scale(0.100000,-0.100000)"
fill="#000000" stroke="none">
<path d="M2031 5064 c-123 -25 -303 -80 -436 -134 -376 -151 -739 -418 -1010
-745 -71 -86 -235 -324 -235 -342 0 -6 -4 -13 -8 -15 -14 -5 -107 -195 -157
-318 -90 -223 -147 -459 -172 -715 -17 -163 -5 -516 22 -645 2 -14 7 -41 10
-60 11 -67 57 -246 87 -335 62 -187 153 -382 252 -540 45 -72 173 -253 200
-282 6 -6 47 -51 91 -100 448 -496 1098 -801 1769 -829 l116 -4 2 1021 3 1022
255 -254 255 -254 530 0 c292 -1 550 -4 575 -7 247 -36 440 -275 425 -527 -8
-138 -55 -243 -149 -337 -83 -83 -185 -133 -301 -149 -27 -3 -52 -8 -55 -11
-2 -3 -5 -118 -5 -256 l0 -250 70 5 c210 16 414 96 573 225 200 162 341 409
370 647 4 33 7 634 7 1335 0 1396 3 1321 -61 1518 -123 379 -440 696 -815 815
-190 61 -171 60 -958 64 l-725 4 -232 232 -233 233 -60 -12z m2008 -1489 c132
-18 256 -130 296 -269 28 -96 7 -251 -41 -307 -8 -8 -14 -19 -14 -22 0 -10
-61 -70 -98 -96 -18 -12 -57 -31 -87 -42 -182 -64 -383 19 -473 196 -50 99
-48 234 5 338 30 61 106 138 163 167 47 24 154 50 185 45 11 -2 40 -6 64 -10z"/>
</g>
</svg>
